<svg xmlns="http://www.w3.org/2000/svg" width="43.470" height="41" viewBox="0 0 43.470 41" fill="none">
  <path d="M 35.566 41 C 34.029 41 31.999 39.024 29.474 35.072 C 26.949 31.12 25.687 27.608 25.687 24.534 C 25.687 21.351 27.718 16.466 31.779 9.88 C 35.95 3.293 38.805 0 40.341 0 C 40.561 0 41 0.274 41.659 0.823 C 42.317 1.372 42.647 1.866 42.647 2.305 C 42.647 2.635 41.604 4.391 39.518 7.574 C 37.432 10.648 36.39 13.447 36.39 15.972 C 36.39 18.497 37.542 21.461 39.847 24.863 C 42.262 28.266 43.47 30.297 43.47 30.956 C 43.47 31.614 43.031 32.712 42.153 34.249 C 39.408 38.75 37.213 41 35.566 41 Z M 9.88 41 C 8.343 41 6.312 39.024 3.787 35.072 C 1.262 31.12 0 27.608 0 24.534 C 0 21.351 2.031 16.466 6.092 9.88 C 10.264 3.293 13.118 0 14.655 0 C 14.874 0 15.313 0.274 15.972 0.823 C 16.631 1.372 16.96 1.866 16.96 2.305 C 16.96 2.635 15.917 4.391 13.831 7.574 C 11.746 10.648 10.703 13.447 10.703 15.972 C 10.703 18.497 11.855 21.461 14.161 24.863 C 16.576 28.266 17.783 30.297 17.783 30.956 C 17.783 31.614 17.344 32.712 16.466 34.249 C 13.722 38.75 11.526 41 9.88 41 Z" fill="currentColor" fill-rule="nonzero"></path>
</svg>