<svg xmlns="http://www.w3.org/2000/svg" width="86.091" height="37.450" viewBox="0 0 86.091 37.450" fill="none">
  <path d="M 36.91 0 L 36.91 12.941 C 36.91 12.941 38.769 9.586 43.509 9.586 C 51.227 9.586 57.409 15.809 57.409 23.518 C 57.409 31.227 51.227 37.45 43.509 37.45 C 35.79 37.45 29.593 31.227 29.593 23.518 L 29.593 0 L 36.91 0 Z M 13.911 9.591 C 21.63 9.591 27.823 15.809 27.823 23.518 L 27.823 37.143 L 20.503 37.143 L 20.503 34.1 L 20.477 34.144 C 20.237 34.54 18.328 37.446 13.911 37.446 C 6.193 37.446 0 31.228 0 23.519 C 0 15.81 6.193 9.591 13.911 9.591 Z M 72.513 9.591 L 72.846 9.595 C 79.364 9.746 84.732 14.336 86.091 20.466 L 78.412 20.466 C 77.312 18.332 75.09 16.873 72.514 16.873 C 68.834 16.873 65.884 19.84 65.884 23.518 C 65.884 27.197 68.834 30.164 72.514 30.164 C 75.082 30.164 77.292 28.71 78.396 26.587 L 86.091 26.587 C 84.703 32.812 79.176 37.446 72.514 37.446 C 64.795 37.446 58.602 31.228 58.602 23.519 C 58.602 15.81 64.795 9.591 72.513 9.591 Z M 43.509 16.872 C 39.829 16.872 36.878 19.84 36.878 23.519 C 36.878 27.197 39.829 30.165 43.509 30.165 C 47.189 30.165 50.139 27.197 50.139 23.519 C 50.139 19.84 47.189 16.872 43.509 16.872 Z M 13.911 16.873 C 10.231 16.873 7.282 19.84 7.282 23.519 C 7.282 27.197 10.231 30.164 13.911 30.164 C 17.591 30.164 20.541 27.197 20.541 23.519 C 20.541 19.84 17.591 16.873 13.911 16.873 Z" fill="currentColor" fill-rule="nonzero"></path>
</svg>