<svg xmlns="http://www.w3.org/2000/svg" width="3.646" height="5.519" viewBox="0 0 3.646 5.519" fill="none">
  <path d="M 2.957 1.577 C 3.154 1.675 3.351 1.873 3.449 2.07 C 3.548 2.267 3.646 2.562 3.646 2.858 L 3.646 5.519 L 2.661 5.519 L 2.661 3.055 C 2.661 2.562 2.365 2.267 1.873 2.267 C 1.675 2.267 1.577 2.267 1.478 2.365 C 1.281 2.464 1.183 2.562 1.084 2.661 C 0.986 2.858 0.986 3.055 0.986 3.252 L 0.986 5.519 L 0 5.519 L 0 0 L 0.986 0 L 0.986 2.07 C 1.084 1.873 1.281 1.675 1.478 1.577 C 1.675 1.478 1.971 1.38 2.267 1.38 C 2.464 1.38 2.759 1.478 2.957 1.577 Z" fill="currentColor" fill-rule="evenodd"></path>
</svg>