<svg xmlns="http://www.w3.org/2000/svg" width="80.518" height="45.039" viewBox="0 0 80.518 45.039" fill="none">
  <path d="M 9.067 39.126 C 10.841 39.126 11.038 38.436 11.038 36.366 L 11.038 15.276 C 11.038 13.108 10.841 12.516 9.067 12.516 L 6.209 12.516 L 6.209 39.224 C 6.209 39.126 9.067 39.126 9.067 39.126 Z M 0 6.702 L 10.151 6.702 C 15.67 6.702 17.148 8.476 17.148 14.487 L 17.148 37.253 C 17.148 43.265 15.67 45.039 10.151 45.039 L 0 45.039 L 0 6.702 Z M 29.467 15.276 C 29.467 13.108 29.27 12.516 27.496 12.516 L 24.638 12.516 L 24.638 22.864 L 27.496 22.864 C 29.27 22.864 29.467 22.174 29.467 20.105 L 29.467 15.276 Z M 35.676 38.239 C 35.676 40.702 35.873 43.068 36.563 44.94 L 30.157 44.94 C 29.566 43.659 29.467 41.392 29.467 38.929 L 29.467 31.931 C 29.467 29.665 29.073 28.58 27.004 28.58 L 24.638 28.58 L 24.638 44.94 L 18.429 44.94 L 18.429 6.702 L 28.58 6.702 C 34.099 6.702 35.578 8.476 35.578 14.487 L 35.578 18.627 C 35.578 22.963 34.789 25.033 32.325 25.821 C 34.888 26.609 35.578 28.778 35.578 33.114 L 35.676 38.239 Z M 43.659 22.076 L 49.277 22.076 L 49.277 27.891 L 43.659 27.891 L 43.659 39.126 L 50.656 39.126 L 50.656 44.94 L 37.549 44.94 L 37.549 6.702 L 50.656 6.702 L 50.656 12.516 L 43.659 12.516 L 43.659 22.076 Z M 64.355 44.94 L 56.57 44.94 L 51.938 6.702 L 58.146 6.702 L 59.92 23.259 C 60.315 27.595 60.807 31.734 60.906 35.085 C 61.103 31.734 61.399 27.595 61.793 23.259 L 63.567 6.702 L 69.579 6.702 L 71.353 23.259 C 71.747 27.595 72.141 31.734 72.239 35.085 C 72.338 31.734 72.732 27.595 73.225 23.259 L 74.999 6.702 L 80.518 6.702 L 75.886 44.94 L 68.396 44.94 L 67.016 30.354 C 66.721 27.201 66.523 23.554 66.425 20.203 C 66.326 23.554 66.129 27.201 65.834 30.354 L 64.355 44.94 Z M 1.577 1.971 L 1.577 4.139 C 1.577 4.238 1.577 4.336 1.675 4.435 C 1.774 4.435 1.873 4.533 2.07 4.533 L 2.365 4.533 L 2.365 5.322 C 2.168 5.322 1.971 5.322 1.873 5.322 C 1.478 5.322 1.084 5.223 0.887 5.125 C 0.69 4.928 0.591 4.632 0.591 4.238 L 0.591 1.971 L 0 1.971 L 0 1.183 L 0.591 1.183 L 0.591 0 L 1.577 0 L 1.577 1.183 L 2.365 1.183 L 2.365 1.971 L 1.577 1.971 Z" fill="currentColor" fill-rule="evenodd"></path>
</svg>