<svg xmlns="http://www.w3.org/2000/svg" width="68.987" height="52.233" viewBox="0 0 68.987 52.233" fill="none">
  <path d="M 1.38 1.084 C 1.183 1.183 1.084 1.478 0.986 1.774 L 3.055 1.774 C 3.055 1.478 2.858 1.281 2.759 1.084 C 2.562 0.887 2.365 0.788 2.07 0.788 C 1.774 0.788 1.577 0.887 1.38 1.084 Z M 4.041 2.464 L 0.986 2.464 C 0.986 2.858 1.084 3.055 1.281 3.252 C 1.577 3.449 1.774 3.548 2.07 3.548 C 2.267 3.548 2.464 3.449 2.661 3.351 C 2.759 3.252 2.957 3.154 2.957 2.957 L 3.942 2.957 C 3.844 3.252 3.745 3.449 3.548 3.646 C 3.351 3.844 3.154 4.041 2.858 4.139 C 2.661 4.238 2.365 4.238 2.07 4.238 C 1.675 4.238 1.281 4.139 0.986 4.041 C 0.69 3.844 0.493 3.548 0.296 3.252 C 0.099 2.957 0 2.562 0 2.168 C 0 1.774 0.099 1.38 0.296 1.084 C 0.493 0.69 0.69 0.493 0.986 0.296 C 1.281 0.099 1.675 0 2.07 0 C 2.464 0 2.858 0.099 3.154 0.296 C 3.449 0.493 3.646 0.788 3.844 1.084 C 4.041 1.38 4.041 1.774 4.041 2.267 L 4.041 2.464 Z M 14.389 49.671 C 14.586 49.474 14.684 49.079 14.684 48.685 C 14.684 48.291 14.586 47.995 14.389 47.7 C 14.192 47.503 13.995 47.404 13.6 47.404 C 13.305 47.404 13.009 47.503 12.812 47.7 C 12.615 47.897 12.516 48.291 12.516 48.685 C 12.516 49.079 12.615 49.474 12.812 49.671 C 13.009 49.868 13.206 49.966 13.6 49.966 C 13.995 49.966 14.192 49.868 14.389 49.671 Z M 14.783 46.813 C 15.079 47.01 15.276 47.207 15.374 47.601 C 15.473 47.995 15.571 48.291 15.571 48.685 C 15.571 49.079 15.473 49.474 15.374 49.769 C 15.276 50.065 14.98 50.361 14.783 50.558 C 14.586 50.755 14.192 50.853 13.797 50.853 C 13.502 50.853 13.305 50.755 13.009 50.656 C 12.812 50.558 12.615 50.361 12.516 50.164 L 12.516 50.755 L 11.531 50.755 L 11.531 45.137 L 12.516 45.137 L 12.516 47.207 C 12.615 47.01 12.812 46.813 13.009 46.714 C 13.206 46.616 13.502 46.517 13.699 46.517 C 14.192 46.517 14.586 46.616 14.783 46.813 Z M 18.232 49.966 C 18.429 49.868 18.528 49.769 18.627 49.671 C 18.725 49.474 18.725 49.375 18.725 49.079 L 18.725 48.685 C 18.725 48.685 18.627 48.784 18.528 48.784 C 18.429 48.784 18.331 48.784 18.232 48.882 L 17.74 48.981 C 17.444 48.981 17.247 49.079 17.148 49.178 C 17.05 49.277 16.951 49.375 16.951 49.572 C 16.951 49.769 17.05 49.868 17.148 49.966 C 17.247 50.065 17.444 50.065 17.641 50.065 C 17.937 50.065 18.134 50.065 18.232 49.966 Z M 18.922 50.755 C 18.824 50.656 18.824 50.459 18.824 50.262 C 18.725 50.459 18.528 50.558 18.331 50.656 C 18.035 50.755 17.838 50.755 17.542 50.755 C 17.247 50.755 17.05 50.755 16.754 50.656 C 16.557 50.558 16.36 50.459 16.261 50.262 C 16.163 50.065 16.064 49.868 16.064 49.572 C 16.064 49.178 16.163 48.882 16.458 48.685 C 16.655 48.488 17.05 48.291 17.641 48.291 L 18.232 48.193 C 18.429 48.193 18.627 48.094 18.627 48.094 C 18.627 48.094 18.725 47.897 18.725 47.798 C 18.725 47.601 18.627 47.503 18.528 47.404 C 18.429 47.306 18.232 47.306 17.937 47.306 C 17.74 47.306 17.542 47.306 17.444 47.404 C 17.345 47.404 17.247 47.503 17.148 47.601 C 17.05 47.7 17.05 47.798 17.05 47.995 L 16.064 47.995 C 16.064 47.503 16.261 47.207 16.557 47.01 C 16.853 46.813 17.345 46.616 17.937 46.616 C 18.528 46.616 18.922 46.714 19.218 46.911 C 19.514 47.108 19.612 47.404 19.612 47.798 L 19.612 49.966 C 19.612 50.164 19.612 50.262 19.612 50.459 C 19.612 50.558 19.711 50.755 19.711 50.755 L 18.922 50.755 Z M 22.864 46.616 L 22.864 47.503 L 22.667 47.503 C 22.273 47.503 21.977 47.601 21.78 47.798 C 21.583 47.995 21.485 48.291 21.485 48.685 L 21.485 50.755 L 20.499 50.755 L 20.499 46.714 L 21.485 46.714 L 21.485 47.404 C 21.583 47.207 21.78 47.01 21.977 46.813 C 22.174 46.714 22.47 46.616 22.766 46.616 L 22.864 46.616 Z M 25.821 46.616 L 25.821 47.503 L 25.624 47.503 C 25.23 47.503 24.934 47.601 24.737 47.798 C 24.54 47.995 24.441 48.291 24.441 48.685 L 24.441 50.755 L 23.456 50.755 L 23.456 46.714 L 24.441 46.714 L 24.441 47.404 C 24.54 47.207 24.737 47.01 24.934 46.813 C 25.131 46.714 25.427 46.616 25.722 46.616 C 25.722 46.616 25.821 46.616 25.821 46.616 Z M 30.157 46.616 L 28.58 51.051 C 28.482 51.346 28.383 51.642 28.186 51.74 C 28.088 51.938 27.891 52.036 27.693 52.135 C 27.496 52.233 27.201 52.233 26.905 52.233 C 26.708 52.233 26.609 52.233 26.511 52.233 L 26.511 51.445 L 26.905 51.445 C 27.102 51.445 27.299 51.346 27.398 51.248 C 27.496 51.149 27.595 50.952 27.595 50.755 C 27.595 50.558 27.496 50.262 27.398 49.966 L 26.215 46.616 L 27.299 46.616 L 27.595 47.601 C 27.792 48.39 28.088 49.079 28.285 49.868 C 28.482 49.178 28.679 48.488 28.975 47.601 L 29.27 46.616 C 29.172 46.616 30.157 46.616 30.157 46.616 Z M 35.873 46.714 C 36.07 46.813 36.268 47.01 36.366 47.207 C 36.465 47.404 36.563 47.7 36.563 47.995 L 36.563 50.656 L 35.578 50.656 L 35.578 48.094 C 35.578 47.798 35.479 47.601 35.381 47.503 C 35.282 47.404 35.085 47.306 34.888 47.306 C 34.691 47.306 34.592 47.306 34.494 47.404 C 34.395 47.503 34.297 47.601 34.198 47.798 C 34.099 47.995 34.099 48.193 34.099 48.39 L 34.099 50.656 L 33.114 50.656 L 33.114 48.094 C 33.114 47.601 32.917 47.306 32.424 47.306 C 32.227 47.306 32.128 47.306 32.03 47.404 C 31.931 47.503 31.833 47.601 31.734 47.798 C 31.537 47.995 31.537 48.193 31.537 48.488 L 31.537 50.755 L 30.551 50.755 L 30.551 46.714 L 31.537 46.714 L 31.537 47.306 C 31.636 47.108 31.833 46.911 32.03 46.813 C 32.227 46.714 32.424 46.616 32.72 46.616 C 33.015 46.616 33.311 46.714 33.508 46.813 C 33.705 46.911 33.902 47.108 34.001 47.404 C 34.099 47.207 34.297 47.01 34.494 46.813 C 34.691 46.714 34.986 46.616 35.183 46.616 C 35.479 46.517 35.676 46.616 35.873 46.714 Z M 39.815 49.671 C 40.013 49.474 40.111 49.079 40.111 48.685 C 40.111 48.291 40.013 47.897 39.815 47.7 C 39.618 47.503 39.323 47.404 39.027 47.404 C 38.731 47.404 38.436 47.503 38.239 47.7 C 38.042 47.897 37.943 48.291 37.943 48.685 C 37.943 49.079 38.042 49.474 38.239 49.671 C 38.436 49.868 38.731 49.966 39.027 49.966 C 39.421 49.966 39.618 49.868 39.815 49.671 Z M 37.943 50.558 C 37.647 50.361 37.352 50.164 37.253 49.769 C 37.056 49.474 36.957 49.079 36.957 48.685 C 36.957 48.291 37.056 47.897 37.253 47.601 C 37.45 47.306 37.647 47.01 37.943 46.813 C 38.239 46.616 38.633 46.517 39.027 46.517 C 39.421 46.517 39.815 46.616 40.111 46.813 C 40.407 47.01 40.702 47.207 40.801 47.601 C 40.998 47.897 41.097 48.291 41.097 48.685 C 41.097 49.079 40.998 49.474 40.801 49.769 C 40.604 50.065 40.407 50.361 40.111 50.558 C 39.815 50.755 39.421 50.755 39.027 50.755 C 38.633 50.755 38.239 50.755 37.943 50.558 Z M 43.955 46.616 L 43.955 47.503 L 43.659 47.503 C 43.265 47.503 42.969 47.601 42.772 47.798 C 42.575 47.995 42.476 48.291 42.476 48.685 L 42.476 50.755 L 41.491 50.755 L 41.491 46.714 L 42.476 46.714 L 42.476 47.404 C 42.575 47.207 42.772 47.01 42.969 46.813 C 43.166 46.714 43.462 46.616 43.758 46.616 C 43.856 46.616 43.856 46.616 43.955 46.616 Z M 45.433 47.601 C 45.236 47.798 45.137 47.995 45.137 48.291 L 47.207 48.291 C 47.207 47.995 47.01 47.798 46.911 47.601 C 46.714 47.404 46.517 47.306 46.221 47.306 C 45.827 47.306 45.63 47.404 45.433 47.601 Z M 48.094 48.981 L 45.039 48.981 C 45.039 49.375 45.137 49.572 45.334 49.769 C 45.532 49.966 45.729 50.065 46.024 50.065 C 46.221 50.065 46.419 49.966 46.616 49.868 C 46.813 49.769 46.911 49.671 47.01 49.474 L 47.995 49.474 C 47.897 49.769 47.798 49.966 47.601 50.164 C 47.404 50.361 47.207 50.558 46.911 50.656 C 46.714 50.755 46.419 50.755 46.123 50.755 C 45.729 50.755 45.334 50.656 45.039 50.459 C 44.743 50.262 44.546 50.065 44.349 49.671 C 44.152 49.375 44.053 48.981 44.053 48.587 C 44.053 48.193 44.152 47.798 44.349 47.503 C 44.546 47.207 44.743 46.911 45.039 46.714 C 45.334 46.517 45.729 46.419 46.123 46.419 C 46.517 46.419 46.911 46.517 47.207 46.714 C 47.503 46.911 47.7 47.207 47.897 47.503 C 48.094 47.798 48.094 48.193 48.094 48.685 C 48.094 48.784 48.094 48.981 48.094 48.981 Z M 50.755 50.459 C 50.459 50.262 50.262 49.868 50.262 49.375 L 51.248 49.375 C 51.248 49.671 51.346 49.769 51.543 49.868 C 51.642 49.966 51.938 50.065 52.233 50.065 C 52.529 50.065 52.726 50.065 52.825 49.966 C 52.923 49.868 53.022 49.769 53.022 49.572 C 53.022 49.474 53.022 49.375 52.923 49.375 C 52.923 49.277 52.825 49.277 52.726 49.178 C 52.627 49.079 52.43 49.079 52.233 49.079 L 51.74 48.981 C 51.346 48.882 50.952 48.784 50.755 48.587 C 50.361 48.39 50.262 48.094 50.262 47.798 C 50.262 47.503 50.361 47.306 50.459 47.108 C 50.558 46.911 50.755 46.813 51.051 46.714 C 51.346 46.616 51.642 46.616 51.938 46.616 C 52.529 46.616 53.022 46.714 53.317 47.01 C 53.613 47.207 53.711 47.601 53.81 47.995 L 52.923 47.995 C 52.923 47.798 52.825 47.601 52.726 47.503 C 52.627 47.404 52.332 47.306 52.135 47.306 C 51.938 47.306 51.74 47.306 51.642 47.404 C 51.543 47.503 51.445 47.601 51.445 47.7 C 51.445 47.798 51.543 47.995 51.642 47.995 C 51.74 48.094 51.938 48.094 52.135 48.193 L 52.627 48.291 C 53.12 48.39 53.514 48.488 53.711 48.685 C 53.909 48.882 54.007 49.178 54.007 49.474 C 54.007 49.769 53.909 49.966 53.81 50.164 C 53.711 50.361 53.416 50.459 53.219 50.558 C 52.923 50.656 52.627 50.755 52.233 50.755 C 51.445 50.853 51.051 50.656 50.755 50.459 Z M 57.259 46.714 C 57.457 46.813 57.654 47.01 57.752 47.207 C 57.851 47.404 57.949 47.7 57.949 47.995 L 57.949 50.656 L 56.964 50.656 L 56.964 48.094 C 56.964 47.601 56.668 47.306 56.175 47.306 C 55.978 47.306 55.88 47.306 55.781 47.404 C 55.683 47.503 55.485 47.601 55.485 47.7 C 55.387 47.897 55.387 47.995 55.387 48.291 L 55.387 50.558 L 54.401 50.558 L 54.401 44.94 L 55.387 44.94 L 55.387 47.01 C 55.485 46.813 55.683 46.616 55.88 46.517 C 56.077 46.419 56.372 46.32 56.57 46.32 C 56.865 46.517 57.062 46.616 57.259 46.714 Z M 61.3 49.671 C 61.497 49.474 61.596 49.079 61.596 48.685 C 61.596 48.291 61.497 47.897 61.3 47.7 C 61.103 47.503 60.807 47.404 60.512 47.404 C 60.216 47.404 59.92 47.503 59.723 47.7 C 59.526 47.897 59.428 48.291 59.428 48.685 C 59.428 49.079 59.526 49.474 59.723 49.671 C 59.92 49.868 60.117 49.966 60.512 49.966 C 60.807 49.966 61.103 49.868 61.3 49.671 Z M 59.428 50.558 C 59.132 50.361 58.836 50.164 58.738 49.769 C 58.541 49.474 58.442 49.079 58.442 48.685 C 58.442 48.291 58.541 47.897 58.738 47.601 C 58.935 47.306 59.132 47.01 59.428 46.813 C 59.723 46.616 60.117 46.517 60.512 46.517 C 60.906 46.517 61.3 46.616 61.596 46.813 C 61.891 47.01 62.187 47.207 62.286 47.601 C 62.483 47.897 62.581 48.291 62.581 48.685 C 62.581 49.079 62.483 49.474 62.286 49.769 C 62.089 50.065 61.891 50.361 61.596 50.558 C 61.3 50.755 60.906 50.755 60.512 50.755 C 60.117 50.755 59.723 50.755 59.428 50.558 Z M 68.987 46.616 L 67.607 50.656 L 66.523 50.656 L 66.031 48.981 C 65.932 48.488 65.735 48.094 65.735 47.798 L 65.636 47.995 L 65.341 48.981 L 64.947 50.755 L 63.862 50.755 L 62.483 46.714 L 63.567 46.714 L 64.06 48.193 C 64.158 48.587 64.355 49.079 64.454 49.572 C 64.552 49.079 64.749 48.587 64.848 48.193 L 65.341 46.714 L 66.326 46.714 L 66.819 48.193 C 66.918 48.587 67.115 49.079 67.213 49.572 C 67.41 48.981 67.509 48.587 67.607 48.193 L 68.1 46.714 L 68.987 46.714 L 68.987 46.616 Z" fill="currentColor" fill-rule="evenodd"></path>
</svg>