<svg xmlns="http://www.w3.org/2000/svg" width="50.231" height="65.045" viewBox="0 0 50.231 65.045" fill="none">
  <path d="M 44.749 53.898 C 48.03 53.898 50.231 56.469 50.231 59.441 L 50.231 59.473 C 50.231 62.443 47.998 65.045 44.719 65.045 C 41.44 65.045 39.238 62.474 39.238 59.503 L 39.238 59.473 C 39.238 56.501 41.471 53.898 44.749 53.898 Z M 4.634 54.083 C 5.958 54.083 7.02 54.484 7.697 55.161 C 8.221 55.684 8.529 56.439 8.529 57.286 L 8.529 57.317 C 8.529 59.087 7.328 60.118 5.651 60.442 L 8.329 63.891 C 8.453 64.03 8.529 64.167 8.529 64.336 C 8.529 64.66 8.221 64.937 7.914 64.937 C 7.667 64.937 7.482 64.799 7.344 64.614 L 4.311 60.672 L 1.216 60.672 L 1.216 64.321 C 1.216 64.66 0.938 64.937 0.6 64.937 C 0.277 64.937 0 64.66 0 64.321 L 0 54.699 C 0 54.361 0.277 54.083 0.6 54.083 L 4.634 54.083 Z M 15.671 53.96 C 16.04 53.96 16.288 54.16 16.425 54.5 L 20.799 64.045 C 20.844 64.153 20.875 64.26 20.875 64.352 C 20.875 64.675 20.614 64.937 20.291 64.937 C 19.998 64.937 19.798 64.737 19.69 64.491 L 18.565 62.012 L 12.654 62.012 L 11.529 64.521 C 11.422 64.784 11.222 64.937 10.944 64.937 C 10.637 64.937 10.39 64.691 10.39 64.383 C 10.39 64.291 10.406 64.184 10.467 64.06 L 14.84 54.5 C 14.993 54.16 15.225 53.96 15.61 53.96 L 15.671 53.96 Z M 35.944 54.006 C 36.283 54.006 36.56 54.284 36.56 54.622 L 36.56 64.321 C 36.56 64.66 36.283 64.937 35.944 64.937 C 35.622 64.937 35.344 64.66 35.344 64.321 L 35.344 54.622 C 35.344 54.284 35.622 54.006 35.944 54.006 Z M 26.94 54.083 C 30.327 54.083 32.667 56.408 32.667 59.441 L 32.667 59.473 C 32.667 62.504 30.327 64.86 26.94 64.86 L 23.799 64.86 C 23.476 64.86 23.199 64.583 23.199 64.245 L 23.199 54.699 C 23.199 54.361 23.476 54.083 23.799 54.083 L 26.94 54.083 Z M 44.719 55.023 C 42.256 55.023 40.501 56.994 40.501 59.441 L 40.501 59.473 C 40.501 61.92 42.287 63.922 44.749 63.922 C 47.213 63.922 48.969 61.951 48.969 59.503 L 48.969 59.473 C 48.969 57.024 47.182 55.023 44.719 55.023 Z M 26.94 55.208 L 24.414 55.208 L 24.414 63.738 L 26.94 63.738 C 29.664 63.738 31.404 61.89 31.404 59.503 L 31.404 59.473 C 31.404 57.086 29.664 55.208 26.94 55.208 Z M 15.61 55.392 L 13.131 60.904 L 18.089 60.904 L 15.61 55.392 Z M 4.542 55.208 L 1.216 55.208 L 1.216 59.58 L 4.526 59.58 C 6.143 59.58 7.298 58.748 7.298 57.363 L 7.298 57.333 C 7.298 56.008 6.281 55.208 4.542 55.208 Z M 30.264 42.473 C 33.098 42.473 35.099 44.357 35.099 47.158 L 35.099 47.191 C 35.099 47.222 35.096 47.249 35.095 47.278 L 35.095 51.691 L 32.097 51.691 L 32.097 50.822 C 31.493 51.448 30.593 51.908 29.421 51.908 C 27.258 51.908 26.002 50.963 26.002 49.2 C 26.002 47.37 27.363 46.404 29.955 46.37 L 32.041 46.361 L 32.039 46.292 C 31.78 45.33 31.07 44.839 30.097 44.839 C 29.346 44.839 28.746 45.124 28.096 45.758 L 26.344 44.307 C 27.212 43.207 28.463 42.473 30.264 42.473 Z M 21.118 42.471 C 24.236 42.471 25.67 44.755 25.67 47.407 C 25.67 47.606 25.67 47.839 25.653 48.057 L 19.617 48.057 C 19.867 49.041 20.584 49.542 21.568 49.542 C 22.319 49.542 22.918 49.257 23.569 48.623 L 25.321 50.074 C 24.452 51.175 23.202 51.908 21.401 51.908 C 18.567 51.908 16.566 50.024 16.566 47.223 L 16.566 47.19 C 16.566 44.555 18.45 42.471 21.118 42.471 Z M 47.49 40.386 L 47.49 42.671 L 49.591 42.671 L 49.591 45.222 L 47.49 45.222 L 47.49 48.274 C 47.49 48.907 47.775 49.173 48.356 49.173 C 48.774 49.173 49.174 49.057 49.558 48.874 L 49.558 51.357 C 48.991 51.674 48.241 51.876 47.356 51.876 C 45.457 51.876 44.321 51.04 44.321 48.891 L 44.321 45.222 L 43.256 45.222 L 43.256 42.671 L 44.321 42.671 L 44.321 40.386 L 47.49 40.386 Z M 8.247 40.019 L 8.247 44.389 L 12.398 44.389 L 12.398 40.019 L 15.632 40.019 L 15.632 51.691 L 12.398 51.691 L 12.398 47.256 L 8.247 47.256 L 8.247 51.691 L 5.011 51.691 L 5.011 40.019 L 8.247 40.019 Z M 1.964 43.333 C 2.877 43.333 3.618 44.073 3.618 44.987 L 3.618 51.691 L 0.193 51.691 L 0.193 44.987 C 0.193 44.073 0.933 43.333 1.847 43.333 L 1.964 43.333 Z M 42.342 42.52 L 42.342 45.856 L 42.076 45.856 C 40.426 45.856 39.491 46.806 39.491 48.891 L 39.491 51.691 L 36.324 51.691 L 36.324 42.671 L 39.491 42.671 L 39.491 44.488 C 40.008 43.254 40.842 42.455 42.342 42.52 Z M 32.097 48.051 L 30.291 48.051 C 29.495 48.051 29.058 48.335 29.058 48.884 C 29.058 49.452 29.546 49.925 30.367 49.89 C 31.935 49.823 32.086 48.52 32.097 48.15 L 32.097 48.051 Z M 21.135 44.805 C 20.301 44.805 19.641 45.449 19.567 46.396 L 22.701 46.396 C 22.701 45.432 22.001 44.805 21.135 44.805 Z M 1.905 39.178 C 2.834 39.178 3.587 39.931 3.587 40.86 C 3.587 41.789 2.834 42.541 1.905 42.541 C 0.977 42.541 0.224 41.789 0.224 40.86 C 0.224 39.931 0.977 39.178 1.905 39.178 Z M 36.369 0 C 43.83 0 49.874 6.045 49.874 13.505 C 49.874 18.238 46.876 21.65 43.745 24.808 L 31.501 36.384 C 30.859 36.99 29.803 36.535 29.803 35.652 L 29.803 26.634 C 29.803 24.024 27.69 21.908 25.082 21.904 C 22.473 21.908 20.36 24.024 20.36 26.634 L 20.36 35.652 C 20.36 36.535 19.304 36.99 18.662 36.384 L 6.419 24.808 C 3.287 21.65 0.289 18.238 0.289 13.505 C 0.289 6.045 6.334 0 13.794 0 C 18.476 0 22.659 2.481 25.082 6.103 C 27.504 2.481 31.687 0 36.369 0 Z M 40.125 4.264 C 39.687 3.99 39.109 4.122 38.835 4.56 C 38.56 4.998 38.692 5.575 39.13 5.85 C 41.227 7.165 42.869 10.247 42.869 12.865 L 42.869 12.91 C 42.869 16.135 41.036 19.395 37.422 22.597 C 37.034 22.941 36.999 23.532 37.342 23.918 C 37.527 24.128 37.785 24.233 38.042 24.233 C 38.263 24.233 38.485 24.156 38.663 23.999 C 42.695 20.424 44.741 16.694 44.741 12.91 L 44.741 12.865 C 44.741 9.613 42.756 5.915 40.125 4.264 Z M 11.328 4.56 C 11.054 4.122 10.476 3.99 10.038 4.264 C 7.408 5.915 5.423 9.613 5.423 12.865 L 5.423 12.91 C 5.423 16.694 7.468 20.424 11.5 23.999 C 11.679 24.156 11.9 24.233 12.121 24.233 C 12.379 24.233 12.636 24.128 12.822 23.918 C 13.164 23.532 13.129 22.941 12.741 22.597 C 9.127 19.395 7.294 16.135 7.294 12.91 L 7.294 12.865 C 7.294 10.247 8.936 7.165 11.033 5.85 C 11.471 5.575 11.603 4.998 11.328 4.56 Z M 33.135 6.618 C 32.678 6.378 32.112 6.554 31.871 7.011 C 31.63 7.468 31.806 8.034 32.264 8.275 C 34.139 9.261 35.305 11.186 35.31 13.301 C 35.304 15.602 33.847 17.96 31.681 19.173 C 31.23 19.425 31.069 19.996 31.321 20.446 C 31.493 20.752 31.811 20.925 32.138 20.925 C 32.294 20.925 32.451 20.887 32.595 20.806 C 35.329 19.275 37.17 16.268 37.182 13.316 L 37.182 13.287 C 37.171 10.48 35.623 7.927 33.135 6.618 Z M 18.292 7.011 C 18.051 6.554 17.485 6.378 17.028 6.618 C 14.54 7.927 12.992 10.48 12.981 13.287 L 12.981 13.316 C 12.993 16.268 14.834 19.275 17.568 20.806 C 17.712 20.887 17.869 20.925 18.025 20.925 C 18.352 20.925 18.67 20.752 18.842 20.446 C 19.094 19.996 18.933 19.425 18.482 19.173 C 16.316 17.96 14.859 15.602 14.853 13.301 C 14.858 11.186 16.024 9.261 17.899 8.275 C 18.357 8.034 18.533 7.468 18.292 7.011 Z M 25.082 9.934 C 22.84 9.935 21.023 11.753 21.023 13.995 C 21.023 16.237 22.84 18.055 25.082 18.056 C 27.324 18.055 29.141 16.237 29.141 13.995 C 29.141 11.753 27.324 9.935 25.082 9.934 Z" fill="currentColor" fill-rule="evenodd"></path>
</svg>