<svg xmlns="http://www.w3.org/2000/svg" width="132.053" height="35.479" viewBox="0 0 132.053 35.479" fill="none">
  <path d="M 5.285 0.003 L 12.527 20.079 L 12.527 0.003 L 18.088 0.003 L 18.088 33.263 C 16.055 33.472 14.026 33.695 12.001 33.93 L 5.561 15.43 L 5.561 34.722 C 3.704 34.964 1.85 35.216 0 35.479 L 0 0.003 L 5.285 0.003 Z M 118.301 0.003 L 121.919 9.336 L 125.945 0.003 L 132.053 0.003 L 124.81 16.792 L 132.053 35.475 L 132.045 35.478 C 129.936 35.178 127.824 34.893 125.708 34.621 L 121.642 24.135 L 117.537 33.648 C 115.592 33.433 113.645 33.23 111.692 33.039 L 118.751 16.679 L 112.285 0.003 L 118.301 0.003 Z M 38.882 0.003 L 38.882 5.532 L 28.996 5.532 L 28.996 13.021 C 30.965 12.995 33.653 12.967 35.642 12.963 L 36.506 12.963 L 36.506 18.443 C 33.991 18.412 31.152 18.478 28.996 18.499 L 28.996 26.794 C 32.282 26.536 35.577 26.31 38.882 26.119 L 38.882 31.599 C 33.71 31.896 28.561 32.28 23.436 32.746 L 23.436 0.003 L 38.882 0.003 Z M 107.544 0.003 L 107.544 32.652 C 105.693 32.487 103.84 32.335 101.983 32.192 L 101.983 0.003 L 107.544 0.003 Z M 87.862 0 L 87.862 25.844 C 91.05 25.993 94.228 26.172 97.399 26.383 L 97.399 31.863 C 92.387 31.528 87.354 31.273 82.301 31.1 L 82.301 0 L 87.862 0 Z M 59.648 0.003 L 59.648 5.532 L 53.828 5.532 L 53.828 30.978 C 51.972 31.026 50.117 31.084 48.267 31.154 L 48.267 5.532 L 42.447 5.532 L 42.447 0.003 L 59.648 0.003 Z M 78.736 0.003 L 78.736 5.532 L 68.774 5.532 L 68.774 12.697 L 76.312 12.697 L 76.312 18.176 L 68.774 18.176 L 68.774 30.827 L 63.213 30.828 L 63.213 0.003 L 78.736 0.003 Z" fill="currentColor" fill-rule="evenodd"></path>
</svg>