<svg width="32" height="78" viewBox="0 0 32 78" fill="none" xmlns="http://www.w3.org/2000/svg">
<path d="M27.4347 10.1835C29.0011 10.5429 30.5324 10.2538 31.5792 9.51555C30.9659 8.39835 29.7237 7.48035 28.1378 7.12105C26.8956 6.83199 25.669 6.95699 24.6964 7.39058C24.8058 7.32027 24.9112 7.24605 25.0206 7.1562C26.1729 6.41792 27.3644 5.7148 28.6065 5.1015C27.4893 5.64056 26.3917 6.2538 25.3292 6.9023C26.048 6.23433 26.6261 5.2812 26.8956 4.1445C27.2745 2.5781 27.005 1.0468 26.2823 0C25.1651 0.59375 24.212 1.8359 23.8331 3.4062C23.4542 4.9374 23.7081 6.4531 24.4112 7.496C22.7901 8.5585 21.2393 9.7304 19.7823 11.0077C20.4855 10.1444 20.9542 8.953 21.0089 7.6015C21.0636 5.9453 20.4699 4.4492 19.5128 3.5312C18.505 4.37886 17.8019 5.8203 17.7472 7.4765C17.6926 9.1171 18.2707 10.5937 19.1886 11.496C17.712 12.8476 16.3253 14.3085 15.0636 15.8554C15.5324 14.9531 15.7668 13.8007 15.6418 12.5937C15.4777 10.9179 14.6886 9.496 13.6066 8.7031C12.7042 9.67576 12.2004 11.2265 12.3644 12.9179C12.5284 14.5741 13.3019 15.9648 14.3449 16.7538C13.5871 17.746 12.8683 18.7733 12.2004 19.8163C11.8058 20.4452 11.4426 21.078 11.0832 21.7265C11.3879 20.7343 11.4074 19.5663 11.0636 18.3749C10.5949 16.7187 9.53245 15.4218 8.30585 14.8241C7.56757 15.9764 7.35273 17.6171 7.81757 19.2929C8.28632 20.914 9.29417 22.1952 10.5012 22.8046C9.7082 24.3554 9.00507 25.9569 8.41137 27.5976C8.37621 26.7148 8.14184 25.7773 7.69262 24.8945C6.8645 23.3086 5.53242 22.2265 4.16142 21.8867C3.65751 23.2031 3.76689 24.914 4.59501 26.5C5.35282 27.9609 6.55981 29.0039 7.82161 29.418C7.76692 29.6172 7.69661 29.8125 7.64192 30.0118C7.1927 31.543 6.84895 33.0937 6.57942 34.6601C6.39973 33.7578 5.98567 32.8399 5.35282 31.9922C4.23562 30.5508 2.70442 29.7031 1.28252 29.5977C1.01299 31.0039 1.42705 32.7148 2.54422 34.1562C3.57152 35.5079 4.97782 36.3164 6.32942 36.5156C6.14973 38.0273 6.04036 39.5429 6.04036 41.0547V41.543C5.69661 40.7696 5.17708 40.0313 4.48956 39.3828C3.13796 38.1211 1.46226 37.5078 0.00125678 37.6523C-0.0338992 39.1132 0.669227 40.75 2.02076 42.0312C3.24736 43.1835 4.75906 43.7773 6.13016 43.7773C6.22 45.3828 6.41922 47.0039 6.72391 48.5898C6.25516 47.9414 5.64191 47.3476 4.88801 46.8437C3.32161 45.8164 1.51691 45.5273 0.0950068 45.9258C0.329387 47.3867 1.32161 48.8985 2.88801 49.9258C4.29421 50.8437 5.88021 51.168 7.21221 50.9531C7.32159 51.3671 7.41143 51.7812 7.53643 52.1953C7.82549 53.2226 8.14971 54.25 8.52862 55.2578C7.97003 54.7539 7.32162 54.3203 6.56382 53.9805C4.77862 53.207 2.90762 53.207 1.50132 53.8359C1.97007 55.2968 3.24742 56.6836 5.03252 57.457C6.59892 58.1406 8.23952 58.2305 9.55592 57.8008C10.1145 59.0625 10.7434 60.3047 11.4465 61.5117C10.8176 61.1172 10.0754 60.7929 9.28632 60.6093C7.39572 60.1601 5.54022 60.5 4.27852 61.3672C5.0168 62.7188 6.51292 63.8554 8.40352 64.3046C10.0597 64.6992 11.6808 64.4843 12.8918 63.8554C13.6653 65.0273 14.5129 66.1601 15.4152 67.2421C14.8019 67.0273 14.1183 66.8827 13.3957 66.8281C11.4152 66.7031 9.61052 67.3671 8.51292 68.4687C9.48558 69.6953 11.1809 70.5781 13.1613 70.7031C14.8371 70.8124 16.3683 70.3437 17.4855 69.5508C18.4035 70.5039 19.3605 71.4063 20.3683 72.2539C19.6847 72.164 18.9621 72.1445 18.2238 72.2539C16.1144 72.5234 14.3683 73.5859 13.4308 74.9727C14.7081 76.0704 16.673 76.6289 18.7824 76.3594C20.5285 76.125 22.0246 75.3672 23.0168 74.3242C24.7277 75.5664 26.548 76.668 28.4387 77.6211C28.7825 77.7851 29.177 77.6406 29.3411 77.3164C29.5051 76.9726 29.3606 76.5781 29.0364 76.414C27.5403 75.6953 26.0989 74.8632 24.7122 73.9452C25.6301 72.6835 26.0833 70.8827 25.8294 68.953C25.5598 66.8436 24.4974 65.0975 23.1106 64.16C22.0129 65.4373 21.4544 67.4022 21.7239 69.5116C21.8879 70.6991 22.2825 71.7811 22.8606 72.6483C21.5286 71.6561 20.2473 70.5936 19.0403 69.4413C20.1028 68.4335 20.8255 66.8632 20.9309 65.0624C21.0402 63.0819 20.3723 61.2968 19.2747 60.1796C18.0481 61.1523 17.1849 62.8632 17.0755 64.8476C17.0052 65.9843 17.2005 67.0468 17.5794 67.9648C16.4427 66.7578 15.3646 65.4765 14.3919 64.1289C15.5638 63.336 16.5364 61.9687 16.931 60.2539C17.3802 58.3633 17.056 56.5078 16.1732 55.2461C14.8216 55.9649 13.6849 57.4609 13.2357 59.3555C12.9818 60.3828 12.9818 61.4102 13.1654 62.3282C13.095 62.2032 13.0013 62.0939 12.931 61.9689C12.1732 60.7814 11.4896 59.5548 10.8763 58.2931C12.1732 57.7149 13.3802 56.5275 14.0638 54.8869C14.8372 53.1017 14.8216 51.2307 14.1732 49.8244C12.7123 50.3126 11.3451 51.59 10.5716 53.3752C10.138 54.3674 9.95827 55.3947 9.99343 56.3479C9.38015 54.9065 8.84113 53.4456 8.40753 51.9534C8.388 51.9182 8.388 51.883 8.388 51.8635C9.72 51.5198 11.0364 50.5471 11.9544 49.1057C12.9622 47.5198 13.2161 45.719 12.8021 44.2932C11.3412 44.5471 9.84896 45.5549 8.83726 47.1409C8.2982 48.0042 7.97398 48.9417 7.84507 49.8245C7.45054 48.1487 7.16148 46.4534 6.99741 44.7425C8.36851 44.6722 9.86071 43.9847 11.0326 42.723C12.2943 41.3714 12.9076 39.6957 12.7631 38.2347C11.3022 38.1996 9.66541 38.9027 8.38421 40.2542C7.6264 41.0667 7.10691 42.0003 6.83341 42.9222C6.79826 42.3089 6.77873 41.6956 6.7631 41.0667C6.74357 39.8597 6.79826 38.6526 6.90763 37.4456C8.23963 37.6253 9.80993 37.2112 11.1615 36.2034C12.6224 35.1214 13.4857 33.5901 13.6107 32.1682C12.2045 31.8792 10.4935 32.2776 9.03263 33.3557C8.14982 34.0042 7.50143 34.8166 7.08733 35.6604C7.30217 33.9299 7.64592 32.1995 8.09513 30.5081C9.37243 30.9222 10.9974 30.7776 12.4896 30.0042C14.0755 29.1761 15.1576 27.844 15.4974 26.473C14.181 25.9691 12.4701 26.0785 10.8841 26.9066C9.85683 27.4457 9.04823 28.1839 8.50523 29.016C9.08335 27.1605 9.78253 25.3402 10.6146 23.5941C11.7669 24.223 13.3334 24.3871 14.9037 23.9183C16.5599 23.43 17.8217 22.3519 18.3998 21.1058C17.2475 20.3871 15.5873 20.1878 13.931 20.6722C12.849 20.9964 11.931 21.5746 11.263 22.2777C11.6771 21.5043 12.1107 20.7269 12.5599 19.973C13.0482 19.1801 13.5521 18.4066 14.0911 17.6488C15.0989 18.4223 16.595 18.8207 18.2005 18.6019C19.8763 18.3676 21.263 17.5199 22.0013 16.4027C20.9935 15.5395 19.4232 15.0863 17.7474 15.3207C16.6654 15.4653 15.7279 15.8793 14.974 16.4379C16.0912 14.977 17.3178 13.5746 18.6302 12.2777C19.4779 13.2504 20.8997 13.8988 22.5208 13.9535C24.177 14.0082 25.6731 13.395 26.5755 12.4418C25.7279 11.434 24.2864 10.7465 22.6107 10.6957C21.3841 10.6606 20.2669 10.9848 19.3841 11.5239C20.845 10.1528 22.4114 8.89497 24.0521 7.75827C24.6615 8.92237 25.8839 9.82412 27.4347 10.1835Z" fill="black"></path>
</svg>